<svg id="Layer_1" data-name="Layer 1" xmlns="http://www.w3.org/2000/svg" viewBox="0 0 144.09 96.06"><defs><style>.cls-1{fill:#fff;}.cls-1,.cls-10,.cls-12,.cls-2,.cls-8{stroke:#231f20;stroke-miterlimit:10;}.cls-1,.cls-2{stroke-width:2px;}.cls-2,.cls-8{fill:none;}.cls-3{font-size:10.69px;}.cls-10,.cls-11,.cls-12,.cls-3,.cls-9{fill:#231f20;}.cls-10,.cls-11,.cls-12,.cls-3{font-family:MyriadPro-Regular, Myriad Pro;}.cls-4{letter-spacing:-0.04em;}.cls-5{letter-spacing:-0.01em;}.cls-6{letter-spacing:0em;}.cls-7{letter-spacing:0.01em;}.cls-10{font-size:3.56px;}.cls-11{font-size:9.5px;}.cls-12{font-size:2.38px;}</style></defs><title>Artboard 1</title><polygon class="cls-1" points="40.51 19.77 112.76 52.59 40.51 85.41 40.51 19.77"/><line class="cls-2" x1="115.14" y1="42.31" x2="115.14" y2="62.88"/><text class="cls-3" transform="translate(43.99 56.05)"><tspan class="cls-4">T</tspan><tspan class="cls-5" x="4.83" y="0">r</tspan><tspan class="cls-6" x="8.27" y="0">ansa</tspan><tspan class="cls-7" x="28.75" y="0">c</tspan><tspan x="33.67" y="0">tion</tspan></text><line class="cls-8" x1="8.35" y1="31.7" x2="37.31" y2="31.7"/><path class="cls-9" d="M39.72,31.7a12,12,0,0,0-3.42,1.9L37,31.7l-.69-1.9A12,12,0,0,0,39.72,31.7Z"/><line class="cls-8" x1="8.35" y1="39.02" x2="37.31" y2="39.02"/><path class="cls-9" d="M39.72,39a12.26,12.26,0,0,0-3.42,1.91L37,39l-.69-1.9A12,12,0,0,0,39.72,39Z"/><line class="cls-8" x1="8.35" y1="46.35" x2="37.31" y2="46.35"/><path class="cls-9" d="M39.72,46.35a12,12,0,0,0-3.42,1.9l.69-1.9-.69-1.9A12,12,0,0,0,39.72,46.35Z"/><line class="cls-8" x1="8.35" y1="71.69" x2="37.31" y2="71.69"/><path class="cls-9" d="M39.72,71.69a12,12,0,0,0-3.42,1.9l.69-1.9-.69-1.9A12,12,0,0,0,39.72,71.69Z"/><text class="cls-10" transform="translate(24.83 55.49)">.<tspan x="0" y="4.28">.</tspan><tspan x="0" y="8.55">.</tspan></text><text class="cls-11" transform="translate(4 17.05)">inputs</text><text class="cls-11" transform="translate(108.95 34.07)">outputs</text><line class="cls-8" x1="115.34" y1="44.87" x2="126.27" y2="44.87"/><path class="cls-9" d="M129.29,44.87A15.25,15.25,0,0,0,125,47.25l.86-2.38L125,42.5A15,15,0,0,0,129.29,44.87Z"/><line class="cls-8" x1="115.34" y1="60.31" x2="126.27" y2="60.31"/><path class="cls-9" d="M129.29,60.31A15.25,15.25,0,0,0,125,62.69l.86-2.38L125,57.94A15,15,0,0,0,129.29,60.31Z"/><text class="cls-12" transform="translate(121.13 50.44)">.<tspan x="0" y="2.85">.</tspan><tspan x="0" y="5.7">.</tspan></text></svg>