<svg xmlns="http://www.w3.org/2000/svg" viewBox="0 0 791.22 408.8"><defs><style>.cls-1{fill:#fff;}.cls-1,.cls-18,.cls-19,.cls-2,.cls-20,.cls-8{stroke:#231f20;}.cls-1,.cls-18,.cls-19,.cls-2,.cls-20,.cls-43,.cls-8{stroke-miterlimit:10;}.cls-18,.cls-19,.cls-2,.cls-20,.cls-43,.cls-8{fill:none;}.cls-3,.cls-4{font-size:12.41px;}.cls-10,.cls-11,.cls-12,.cls-14,.cls-15,.cls-16,.cls-24,.cls-25,.cls-3,.cls-33,.cls-4,.cls-5,.cls-7{fill:#231f20;}.cls-10,.cls-11,.cls-14,.cls-15,.cls-16,.cls-24,.cls-25,.cls-3,.cls-4,.cls-5{font-family:MyriadPro-Regular, Myriad Pro;}.cls-4{letter-spacing:0em;}.cls-5{font-size:10.64px;}.cls-6{letter-spacing:-0.01em;}.cls-18,.cls-19,.cls-20,.cls-8{stroke-width:0.5px;}.cls-21,.cls-9{font-size:17.73px;}.cls-13,.cls-21,.cls-22,.cls-44,.cls-9{fill:#00aeef;}.cls-12,.cls-13,.cls-21,.cls-22,.cls-33,.cls-9{font-family:MyriadPro-Bold, Myriad Pro;font-weight:700;}.cls-10,.cls-17{font-size:8.86px;}.cls-11{font-size:12.41px;}.cls-12,.cls-13{font-size:17.73px;}.cls-14{font-size:8.86px;}.cls-15{font-size:23.05px;}.cls-16{font-size:23.05px;}.cls-18{stroke-dasharray:0.99 1.97;}.cls-19{stroke-dasharray:0.99 1.97;}.cls-20{stroke-dasharray:1 2;}.cls-22,.cls-24,.cls-25{font-size:15.73px;}.cls-23,.cls-27,.cls-28,.cls-29,.cls-30,.cls-31,.cls-32{font-size:11.23px;}.cls-23{letter-spacing:0em;}.cls-25{letter-spacing:-0.01em;}.cls-26{letter-spacing:0em;}.cls-27{letter-spacing:-0.01em;}.cls-28{letter-spacing:-0.03em;}.cls-29{letter-spacing:0em;}.cls-31{letter-spacing:-0.01em;}.cls-32{letter-spacing:-0.03em;}.cls-33{font-size:21.27px;}.cls-34{letter-spacing:-0.01em;}.cls-35{letter-spacing:0em;}.cls-36{letter-spacing:0em;}.cls-37{letter-spacing:-0.01em;}.cls-38{letter-spacing:0em;}.cls-39{letter-spacing:-0.05em;}.cls-40{letter-spacing:-0.01em;}.cls-41{letter-spacing:0.02em;}.cls-42{letter-spacing:0em;}.cls-43{stroke:#00aeef;stroke-width:2px;}</style></defs><title>Artboard 1</title><g id="Layer_2" data-name="Layer 2"><polygon class="cls-1" points="118.1 96.01 159.76 114.94 118.1 133.86 118.1 96.01"/><line class="cls-2" x1="161.87" y1="109.01" x2="161.87" y2="120.86"/><text class="cls-3" transform="translate(124.04 117.72)">T</text><text class="cls-4" transform="translate(130.2 121.85) scale(0.58)">00</text><polygon class="cls-1" points="118.1 180.17 159.76 199.09 118.1 218.02 118.1 180.17"/><line class="cls-2" x1="161.87" y1="193.17" x2="161.87" y2="205.02"/><text class="cls-3" transform="translate(124.04 201.88)">T</text><text class="cls-4" transform="translate(130.2 206.01) scale(0.58)">01</text><text class="cls-5" transform="translate(68.37 106.07)"><tspan class="cls-6">c</tspan><tspan x="4.7" y="0">oinbase</tspan></text><line class="cls-2" x1="39.12" y1="305.03" x2="397.92" y2="305.03"/><polygon class="cls-7" points="394.61 309.12 393.93 308.39 397.54 305.03 393.93 301.68 394.61 300.94 399.01 305.03 394.61 309.12"/><text class="cls-3" transform="translate(44.88 319.21)">time</text><line class="cls-8" x1="165.41" y1="200.87" x2="240.9" y2="231.2"/><path class="cls-7" d="M240.71,231.13a3.7,3.7,0,0,1,.12-2.41,6.79,6.79,0,0,0,1.72,3.15,7.23,7.23,0,0,0-3.42,1.07A3.88,3.88,0,0,1,240.71,231.13Z"/><text class="cls-3" transform="translate(173.08 221.3) rotate(21.89)">(</text><text class="cls-3" transform="translate(176.37 222.63) rotate(21.89)"> </text><text class="cls-9" transform="translate(178.82 223.61) rotate(21.89)">a</text><text class="cls-9" transform="translate(185.3 232.58) rotate(21.89) scale(0.58)">1</text><text class="cls-3" transform="translate(192.81 229.23) rotate(21.89)"> </text><text class="cls-3" transform="translate(195.26 230.22) rotate(21.89)">,</text><text class="cls-3" transform="translate(197.64 231.17) rotate(21.89)"> </text><text class="cls-3" transform="matrix(0.93, 0.37, -0.37, 0.93, 200.1, 232.16)">1</text><text class="cls-3" transform="translate(206.01 234.53) rotate(21.89)"> </text><text class="cls-10" transform="translate(208.45 235.52) rotate(21.89)">B</text><text class="cls-10" transform="matrix(0.93, 0.37, -0.37, 0.93, 212.91, 237.31)">T</text><text class="cls-10" transform="translate(217 238.95) rotate(21.89)">C</text><text class="cls-10" transform="matrix(0.93, 0.37, -0.37, 0.93, 221.77, 240.87)"> </text><text class="cls-3" transform="matrix(0.93, 0.37, -0.37, 0.93, 223.51, 241.57)">)</text><polygon class="cls-1" points="284.5 90.08 326.15 109.01 284.5 127.93 284.5 90.08"/><line class="cls-2" x1="328.26" y1="103.08" x2="328.26" y2="114.94"/><text class="cls-3" transform="translate(290.44 111.79)">T</text><text class="cls-4" transform="translate(296.6 115.92) scale(0.58)">20</text><polygon class="cls-1" points="247.7 218.26 289.35 237.19 247.7 256.11 247.7 218.26"/><line class="cls-2" x1="291.46" y1="231.26" x2="291.46" y2="243.11"/><text class="cls-3" transform="translate(253.63 239.97)">T</text><text class="cls-4" transform="translate(259.8 244.1) scale(0.58)">10</text><line class="cls-8" x1="332" y1="104.91" x2="405.01" y2="84.63"/><rect class="cls-7" x="404.76" y="83" width="0.5" height="3.25" transform="translate(-7.88 111.47) rotate(-15.52)"/><text class="cls-3" transform="matrix(0.96, -0.27, 0.27, 0.96, 332.51, 97.49)">(</text><text class="cls-3" transform="translate(335.9 96.55) rotate(-15.52)"> </text><text class="cls-3" transform="translate(338.43 95.84) rotate(-15.52)">a</text><text class="cls-3" transform="translate(345.3 98.22) rotate(-15.52) scale(0.58)">2</text><text class="cls-3" transform="matrix(0.96, -0.27, 0.27, 0.96, 347.77, 93.25)"> </text><text class="cls-3" transform="matrix(0.96, -0.27, 0.27, 0.96, 350.31, 92.54)">,</text><text class="cls-3" transform="translate(352.79 91.85) rotate(-15.52)"> </text><text class="cls-3" transform="translate(355.33 91.15) rotate(-15.52)">3</text><text class="cls-3" transform="translate(361.46 89.45) rotate(-15.52)">0</text><text class="cls-3" transform="translate(367.61 87.74) rotate(-15.52)"> </text><text class="cls-10" transform="matrix(0.96, -0.27, 0.27, 0.96, 370.13, 87.04)">B</text><text class="cls-10" transform="matrix(0.96, -0.27, 0.27, 0.96, 374.77, 85.75)">T</text><text class="cls-10" transform="translate(379.02 84.57) rotate(-15.52)">C</text><text class="cls-10" transform="translate(383.97 83.19) rotate(-15.52)"> </text><text class="cls-3" transform="matrix(0.96, -0.27, 0.27, 0.96, 385.78, 82.69)">)</text><line class="cls-8" x1="199.72" y1="82.89" x2="278.94" y2="102.43"/><rect class="cls-7" x="198.1" y="82.64" width="3.25" height="0.5" transform="translate(71.42 256.95) rotate(-76.15)"/><path class="cls-7" d="M278.75,102.38a3.66,3.66,0,0,1-.23-2.4,6.8,6.8,0,0,0,2.15,2.87,7.18,7.18,0,0,0-3.24,1.55A3.82,3.82,0,0,1,278.75,102.38Z"/><text class="cls-11" transform="translate(210.09 76.22) rotate(13.86)">(</text><text class="cls-12" transform="translate(213.51 77.07) rotate(13.86)"> </text><text class="cls-13" transform="translate(216.99 77.93) rotate(13.86)">a</text><text class="cls-13" transform="translate(224.66 85.9) rotate(13.86) scale(0.58)">2</text><text class="cls-11" transform="translate(231.63 81.54) rotate(13.86)"> </text><text class="cls-11" transform="translate(234.19 82.17) rotate(13.86)">,</text><text class="cls-11" transform="translate(236.7 82.79) rotate(13.86)"> </text><text class="cls-11" transform="translate(239.23 83.41) rotate(13.86)">1</text><text class="cls-11" transform="matrix(0.97, 0.24, -0.24, 0.97, 245.42, 84.94)">0</text><text class="cls-11" transform="translate(251.62 86.47) rotate(13.86)"> </text><text class="cls-14" transform="translate(254.18 87.1) rotate(13.86)">B</text><text class="cls-14" transform="matrix(0.97, 0.24, -0.24, 0.97, 258.83, 88.24)">T</text><text class="cls-14" transform="translate(263.11 89.3) rotate(13.86)">C</text><text class="cls-14" transform="translate(268.1 90.53) rotate(13.86)"> </text><text class="cls-11" transform="translate(269.92 90.98) rotate(13.86)">)</text><text class="cls-15" transform="translate(184.77 80.07) rotate(13.86) scale(0.85)">.</text><text class="cls-15" transform="translate(188.71 81.05) rotate(13.86) scale(0.85)">.</text><text class="cls-15" transform="matrix(0.83, 0.2, -0.2, 0.83, 192.63, 82.01)">.</text><line class="cls-8" x1="169.64" y1="263.66" x2="240.83" y2="246.1"/><rect class="cls-7" x="169.39" y="262.04" width="0.5" height="3.25" transform="translate(-58.22 48.31) rotate(-13.86)"/><path class="cls-7" d="M240.63,246.15a3.69,3.69,0,0,1-1.31-2,6.66,6.66,0,0,0,3.23,1.54,7.22,7.22,0,0,0-2.14,2.88A3.79,3.79,0,0,1,240.63,246.15Z"/><text class="cls-3" transform="matrix(0.97, -0.24, 0.24, 0.97, 178.69, 278.28)">(</text><text class="cls-3" transform="matrix(0.97, -0.24, 0.24, 0.97, 182.11, 277.44)"> </text><text class="cls-9" transform="translate(184.67 276.81) rotate(-13.86)">a</text><text class="cls-9" transform="translate(195.17 280.3) rotate(-13.86) scale(0.58)">3</text><text class="cls-3" transform="matrix(0.97, -0.24, 0.24, 0.97, 199.33, 273.19)"> </text><text class="cls-3" transform="translate(201.89 272.56) rotate(-13.86)">,</text><text class="cls-3" transform="translate(204.39 271.94) rotate(-13.86)"> </text><text class="cls-3" transform="translate(206.95 271.31) rotate(-13.86)">1</text><text class="cls-3" transform="matrix(0.97, -0.24, 0.24, 0.97, 213.12, 269.79)">0</text><text class="cls-3" transform="matrix(0.97, -0.24, 0.24, 0.97, 219.32, 268.26)"> </text><text class="cls-10" transform="matrix(0.97, -0.24, 0.24, 0.97, 221.87, 267.63)">B</text><text class="cls-10" transform="translate(226.53 266.48) rotate(-13.86)">T</text><text class="cls-10" transform="matrix(0.97, -0.24, 0.24, 0.97, 230.8, 265.43)">C</text><text class="cls-10" transform="translate(235.81 264.19) rotate(-13.86)"> </text><text class="cls-3" transform="matrix(0.97, -0.24, 0.24, 0.97, 237.63, 263.74)">)</text><text class="cls-15" transform="matrix(0.83, -0.2, -0.2, -0.83, 155.52, 266.68)">.</text><text class="cls-15" transform="matrix(0.83, -0.2, -0.2, -0.83, 159.46, 265.71)">.</text><text class="cls-15" transform="matrix(0.83, -0.2, -0.2, -0.83, 163.37, 264.74)">.</text><line class="cls-8" x1="331.99" y1="113.17" x2="390.53" y2="149.63"/><rect class="cls-7" x="388.9" y="149.38" width="3.25" height="0.5" transform="translate(57.05 402) rotate(-58.08)"/><text class="cls-3" transform="matrix(0.85, 0.53, -0.53, 0.85, 330.01, 130.12)">(</text><text class="cls-3" transform="translate(333.01 131.99) rotate(31.92)"> </text><text class="cls-3" transform="translate(335.25 133.39) rotate(31.92)">a</text><text class="cls-3" transform="matrix(0.49, 0.31, -0.31, 0.49, 338.15, 140.06)">4</text><text class="cls-3" transform="translate(343.49 138.52) rotate(31.92)"> </text><text class="cls-3" transform="matrix(0.85, 0.53, -0.53, 0.85, 345.71, 139.9)">,</text><text class="cls-3" transform="translate(347.9 141.26) rotate(31.92)"> </text><text class="cls-3" transform="matrix(0.85, 0.53, -0.53, 0.85, 350.13, 142.65)">3</text><text class="cls-3" transform="matrix(0.85, 0.53, -0.53, 0.85, 355.53, 146.01)">0</text><text class="cls-3" transform="matrix(0.85, 0.53, -0.53, 0.85, 360.95, 149.39)"> </text><text class="cls-10" transform="translate(363.19 150.78) rotate(31.92)">B</text><text class="cls-10" transform="translate(367.25 153.31) rotate(31.92)">T</text><text class="cls-10" transform="matrix(0.85, 0.53, -0.53, 0.85, 371, 155.65)">C</text><text class="cls-3" transform="translate(375.36 158.36) rotate(31.92)"> </text><text class="cls-3" transform="matrix(0.85, 0.53, -0.53, 0.85, 377.59, 159.75)">)</text><text class="cls-16" transform="matrix(0.72, 0.45, -0.45, 0.72, 391.69, 151.47)">.</text><text class="cls-16" transform="matrix(0.72, 0.45, -0.45, 0.72, 395.12, 153.61)">.</text><text class="cls-16" transform="matrix(0.72, 0.45, -0.45, 0.72, 398.58, 155.76)">.</text><text></text><line class="cls-8" x1="294.52" y1="237.18" x2="389.89" y2="237.18"/><rect class="cls-7" x="389.64" y="235.56" width="0.5" height="3.25"/><text class="cls-3" transform="translate(319.77 251.4)">(<tspan x="3.52" y="0"> </tspan><tspan x="6.17" y="0">a</tspan></text><text class="cls-3" transform="translate(331.91 255.53) scale(0.58)">3</text><text class="cls-3" transform="translate(335.63 251.4)"> <tspan x="2.62" y="0">,</tspan><tspan x="5.18" y="0"> </tspan><tspan x="7.83" y="0">1</tspan><tspan x="14.18" y="0">1</tspan><tspan x="20.56" y="0"> </tspan><tspan class="cls-17" x="23.2" y="0">B</tspan><tspan class="cls-17" x="27.99" y="0">T</tspan><tspan class="cls-17" x="32.4" y="0">C</tspan><tspan class="cls-17" x="37.55" y="0"> </tspan><tspan x="39.42" y="0">)</tspan></text><text class="cls-16" transform="translate(391.32 238.15) scale(0.85)">.<tspan x="4.75" y="0">.</tspan><tspan x="9.54" y="0">.</tspan></text><line class="cls-8" x1="133.51" y1="216.37" x2="133.52" y2="216.87"/><line class="cls-18" x1="133.55" y1="218.84" x2="134.82" y2="303.55"/><line class="cls-8" x1="134.84" y1="304.53" x2="134.84" y2="305.03"/><line class="cls-8" x1="133.69" y1="131.61" x2="133.7" y2="132.11"/><line class="cls-19" x1="133.74" y1="134.08" x2="134.64" y2="180.37"/><line class="cls-8" x1="134.65" y1="181.36" x2="134.66" y2="181.86"/><line class="cls-20" x1="268.53" y1="251.4" x2="268.53" y2="305.03"/><line class="cls-20" x1="300.01" y1="125.72" x2="300.01" y2="233.03"/><line class="cls-20" x1="300.01" y1="243.11" x2="300.01" y2="304.36"/><text class="cls-5" transform="translate(138.21 297.94)">t</text><text class="cls-5" transform="translate(141.73 301.48) scale(0.58)">0</text><text class="cls-5" transform="translate(272.07 297.94)">t</text><text class="cls-5" transform="translate(275.59 301.48) scale(0.58)">1</text><text class="cls-5" transform="translate(304.43 297.94)">t</text><text class="cls-5" transform="translate(307.95 301.48) scale(0.58)">2</text><line class="cls-8" x1="165.41" y1="114.94" x2="278.89" y2="114.94"/><path class="cls-7" d="M278.69,114.94a3.73,3.73,0,0,1-.79-2.28,6.69,6.69,0,0,0,2.77,2.28,7.1,7.1,0,0,0-2.77,2.27A3.81,3.81,0,0,1,278.69,114.94Z"/><text class="cls-3" transform="translate(193.37 129.7)">(<tspan x="3.52" y="0"> </tspan><tspan class="cls-21" x="6.17" y="0">a</tspan></text><text class="cls-9" transform="translate(208.88 135.61) scale(0.58)">1</text><text class="cls-3" transform="translate(214.64 129.7)"> <tspan x="2.6" y="0">,</tspan><tspan x="5.19" y="0"> </tspan><tspan x="7.83" y="0">5</tspan><tspan x="14.19" y="0">0</tspan><tspan x="20.56" y="0"> </tspan><tspan class="cls-17" x="23.18" y="0">B</tspan><tspan class="cls-17" x="27.99" y="0">T</tspan><tspan class="cls-17" x="32.4" y="0">C</tspan><tspan class="cls-17" x="37.53" y="0"> </tspan><tspan x="39.42" y="0">)</tspan></text><line class="cls-8" x1="47.34" y1="199.09" x2="112.24" y2="199.09"/><rect class="cls-7" x="47.09" y="197.47" width="0.5" height="3.25"/><path class="cls-7" d="M112,199.09a3.68,3.68,0,0,1-.79-2.27,6.75,6.75,0,0,0,2.77,2.27,7,7,0,0,0-2.77,2.28A3.86,3.86,0,0,1,112,199.09Z"/><text class="cls-3" transform="translate(51.97 215.5)">(<tspan x="3.54" y="0"> </tspan><tspan x="6.16" y="0">a</tspan></text><text class="cls-3" transform="translate(64.11 219.63) scale(0.58)">0</text><text class="cls-3" transform="translate(67.83 215.5)"> <tspan x="2.64" y="0">,</tspan><tspan x="5.21" y="0"> </tspan><tspan x="7.83" y="0">2</tspan><tspan x="14.21" y="0"> </tspan><tspan class="cls-17" x="16.83" y="0">B</tspan><tspan class="cls-17" x="21.63" y="0">T</tspan><tspan class="cls-17" x="26.03" y="0">C</tspan><tspan class="cls-17" x="31.19" y="0"> </tspan><tspan x="33.08" y="0">)</tspan></text><text class="cls-16" transform="translate(33.47 200.35) scale(0.85)">.<tspan x="4.75" y="0">.</tspan><tspan x="9.54" y="0">.</tspan></text><line class="cls-8" x1="165.6" y1="196.13" x2="238.61" y2="175.85"/><rect class="cls-7" x="238.36" y="174.23" width="0.5" height="3.25" transform="translate(-38.36 70.27) rotate(-15.52)"/><text class="cls-3" transform="translate(166.11 188.71) rotate(-15.52)">(</text><text class="cls-3" transform="translate(169.5 187.77) rotate(-15.52)"> </text><text class="cls-3" transform="translate(172.03 187.07) rotate(-15.52)">a</text><text class="cls-3" transform="matrix(0.56, -0.16, 0.16, 0.56, 178.9, 189.45)">2</text><text class="cls-3" transform="translate(181.39 184.47) rotate(-15.52)"> </text><text class="cls-3" transform="translate(183.91 183.77) rotate(-15.52)">,</text><text class="cls-3" transform="translate(186.4 183.08) rotate(-15.52)"> </text><text class="cls-3" transform="translate(188.93 182.37) rotate(-15.52)">1</text><text class="cls-3" transform="matrix(0.96, -0.27, 0.27, 0.96, 195.06, 180.67)"> </text><text class="cls-10" transform="matrix(0.96, -0.27, 0.27, 0.96, 197.61, 179.96)">B</text><text class="cls-10" transform="matrix(0.96, -0.27, 0.27, 0.96, 202.23, 178.68)">T</text><text class="cls-10" transform="translate(206.48 177.5) rotate(-15.52)">C</text><text class="cls-10" transform="translate(211.44 176.12) rotate(-15.52)"> </text><text class="cls-3" transform="translate(213.26 175.62) rotate(-15.52)">)</text><text class="cls-10" transform="translate(175.56 354.54)">o<tspan x="4.89" y="0">u</tspan><tspan x="9.77" y="0">t</tspan><tspan x="12.7" y="0">p</tspan><tspan x="17.75" y="0">u</tspan><tspan x="22.65" y="0">t</tspan><tspan x="25.56" y="0"> </tspan><tspan x="27.45" y="0">r</tspan><tspan x="30.28" y="0">e</tspan><tspan x="34.71" y="0">f</tspan><tspan x="37.18" y="0">e</tspan><tspan x="41.61" y="0">r</tspan><tspan x="44.45" y="0">e</tspan><tspan x="48.88" y="0">n</tspan><tspan x="53.81" y="0">c</tspan><tspan x="57.71" y="0">e</tspan><tspan x="62.16" y="0">d</tspan><tspan x="67.17" y="0"> </tspan><tspan x="69.05" y="0">b</tspan><tspan x="74.03" y="0">y</tspan><tspan x="78.2" y="0"> </tspan><tspan x="80.08" y="0">a</tspan><tspan x="84.34" y="0">n</tspan><tspan x="89.29" y="0"> </tspan><tspan x="91.18" y="0">u</tspan><tspan x="96.06" y="0">n</tspan><tspan x="100.87" y="0">v</tspan><tspan x="105.13" y="0">i</tspan><tspan x="107.2" y="0">s</tspan><tspan x="110.71" y="0">u</tspan><tspan x="115.6" y="0">a</tspan><tspan x="119.87" y="0">l</tspan><tspan x="121.95" y="0">i</tspan><tspan x="124.04" y="0">z</tspan><tspan x="127.75" y="0">e</tspan><tspan x="132.2" y="0">d</tspan><tspan x="137.21" y="0"> </tspan><tspan x="139.09" y="0">t</tspan><tspan x="142.03" y="0">r</tspan><tspan x="144.89" y="0">a</tspan><tspan x="149.16" y="0">n</tspan><tspan x="154.08" y="0">s</tspan><tspan x="157.58" y="0">a</tspan><tspan x="161.86" y="0">c</tspan><tspan x="165.96" y="0">t</tspan><tspan x="168.9" y="0">i</tspan><tspan x="170.97" y="0">o</tspan><tspan x="175.83" y="0">n</tspan></text><line class="cls-8" x1="136.21" y1="351.68" x2="85.4" y2="351.68"/><rect class="cls-7" x="135.96" y="350.05" width="0.5" height="3.25"/><text class="cls-16" transform="translate(151.55 350.32) rotate(180) scale(0.85)">.<tspan x="4.75" y="0">.</tspan><tspan x="9.54" y="0">.</tspan></text><line class="cls-8" x1="100.73" y1="335.59" x2="151.53" y2="335.59"/><rect class="cls-7" x="100.48" y="333.97" width="0.5" height="3.25"/><text class="cls-10" transform="translate(175.57 338.25)">r<tspan x="2.81" y="0">e</tspan><tspan x="7.26" y="0">f</tspan><tspan x="9.73" y="0">e</tspan><tspan x="14.17" y="0">r</tspan><tspan x="16.99" y="0">e</tspan><tspan x="21.44" y="0">n</tspan><tspan x="26.36" y="0">c</tspan><tspan x="30.27" y="0">e</tspan><tspan x="34.73" y="0">d</tspan><tspan x="39.72" y="0"> </tspan><tspan x="41.61" y="0">o</tspan><tspan x="46.47" y="0">u</tspan><tspan x="51.36" y="0">t</tspan><tspan x="54.28" y="0">p</tspan><tspan x="59.33" y="0">u</tspan><tspan x="64.23" y="0">t</tspan><tspan x="67.16" y="0"> </tspan><tspan x="69.02" y="0">f</tspan><tspan x="71.62" y="0">r</tspan><tspan x="74.45" y="0">o</tspan><tspan x="79.3" y="0">m</tspan><tspan x="86.7" y="0"> </tspan><tspan x="88.59" y="0">a</tspan><tspan x="92.85" y="0">n</tspan><tspan x="97.77" y="0"> </tspan><tspan x="99.66" y="0">u</tspan><tspan x="104.55" y="0">n</tspan><tspan x="109.36" y="0">v</tspan><tspan x="113.62" y="0">i</tspan><tspan x="115.69" y="0">s</tspan><tspan x="119.21" y="0">u</tspan><tspan x="124.1" y="0">a</tspan><tspan x="128.37" y="0">l</tspan><tspan x="130.46" y="0">i</tspan><tspan x="132.53" y="0">z</tspan><tspan x="136.28" y="0">e</tspan><tspan x="140.71" y="0">d</tspan><tspan x="145.72" y="0"> </tspan><tspan x="147.57" y="0">t</tspan><tspan x="150.52" y="0">r</tspan><tspan x="153.38" y="0">a</tspan><tspan x="157.66" y="0">n</tspan><tspan x="162.57" y="0">s</tspan><tspan x="166.08" y="0">a</tspan><tspan x="170.37" y="0">c</tspan><tspan x="174.45" y="0">t</tspan><tspan x="177.39" y="0">i</tspan><tspan x="179.45" y="0">o</tspan><tspan x="184.33" y="0">n</tspan></text><text class="cls-16" transform="translate(85.38 336.95) scale(0.85)">.<tspan x="4.75" y="0">.</tspan><tspan x="9.54" y="0">.</tspan></text><line class="cls-8" x1="85.45" y1="368.27" x2="152.13" y2="368.27"/><rect class="cls-7" x="151.88" y="366.64" width="0.5" height="3.25"/><text class="cls-10" transform="translate(175.56 370.74)">o<tspan x="4.89" y="0">u</tspan><tspan x="9.77" y="0">t</tspan><tspan x="12.7" y="0">p</tspan><tspan x="17.75" y="0">u</tspan><tspan x="22.65" y="0">t</tspan><tspan x="25.56" y="0"> </tspan><tspan x="27.47" y="0">n</tspan><tspan x="32.38" y="0">o</tspan><tspan x="37.24" y="0">t</tspan><tspan x="40.18" y="0"> </tspan><tspan x="42.06" y="0">r</tspan><tspan x="44.86" y="0">e</tspan><tspan x="49.3" y="0">f</tspan><tspan x="51.8" y="0">e</tspan><tspan x="56.24" y="0">r</tspan><tspan x="59.04" y="0">e</tspan><tspan x="63.47" y="0">n</tspan><tspan x="68.42" y="0">c</tspan><tspan x="72.32" y="0">e</tspan><tspan x="76.76" y="0">d</tspan><tspan x="81.77" y="0"> </tspan><tspan x="83.65" y="0">b</tspan><tspan x="88.63" y="0">y</tspan><tspan x="92.8" y="0"> </tspan><tspan x="94.69" y="0">a</tspan><tspan x="98.96" y="0">n</tspan><tspan x="103.89" y="0">o</tspan><tspan x="108.77" y="0">t</tspan><tspan x="111.7" y="0">h</tspan><tspan x="116.63" y="0">e</tspan><tspan x="121.07" y="0">r</tspan><tspan x="123.95" y="0"> </tspan><tspan x="125.84" y="0">t</tspan><tspan x="128.76" y="0">r</tspan><tspan x="131.62" y="0">a</tspan><tspan x="135.9" y="0">n</tspan><tspan x="140.81" y="0">s</tspan><tspan x="144.34" y="0">a</tspan><tspan x="148.6" y="0">c</tspan><tspan x="152.7" y="0">t</tspan><tspan x="155.63" y="0">i</tspan><tspan x="157.69" y="0">o</tspan><tspan x="162.56" y="0">n</tspan></text><line class="cls-8" x1="85.45" y1="384.56" x2="150.6" y2="384.56"/><path class="cls-7" d="M150.39,384.56a3.73,3.73,0,0,1-.79-2.28,6.79,6.79,0,0,0,2.78,2.28,7.2,7.2,0,0,0-2.78,2.27A3.81,3.81,0,0,1,150.39,384.56Z"/><text class="cls-10" transform="translate(175.56 387.03)">o<tspan x="4.89" y="0">u</tspan><tspan x="9.77" y="0">t</tspan><tspan x="12.7" y="0">p</tspan><tspan x="17.75" y="0">u</tspan><tspan x="22.65" y="0">t</tspan><tspan x="25.56" y="0"> </tspan><tspan x="27.45" y="0">r</tspan><tspan x="30.28" y="0">e</tspan><tspan x="34.71" y="0">f</tspan><tspan x="37.18" y="0">e</tspan><tspan x="41.61" y="0">r</tspan><tspan x="44.45" y="0">e</tspan><tspan x="48.88" y="0">n</tspan><tspan x="53.81" y="0">c</tspan><tspan x="57.71" y="0">e</tspan><tspan x="62.16" y="0">d</tspan><tspan x="67.17" y="0"> </tspan><tspan x="69.05" y="0">b</tspan><tspan x="74.03" y="0">y</tspan><tspan x="78.2" y="0"> </tspan><tspan x="80.08" y="0">a</tspan><tspan x="84.34" y="0">n</tspan><tspan x="89.29" y="0">o</tspan><tspan x="94.15" y="0">t</tspan><tspan x="97.09" y="0">h</tspan><tspan x="102" y="0">e</tspan><tspan x="106.46" y="0">r</tspan><tspan x="109.36" y="0"> </tspan><tspan x="111.23" y="0">t</tspan><tspan x="114.18" y="0">r</tspan><tspan x="117.03" y="0">a</tspan><tspan x="121.3" y="0">n</tspan><tspan x="126.22" y="0">s</tspan><tspan x="129.73" y="0">a</tspan><tspan x="134" y="0">c</tspan><tspan x="138.09" y="0">t</tspan><tspan x="141.02" y="0">i</tspan><tspan x="143.1" y="0">o</tspan><tspan x="147.97" y="0">n</tspan></text><rect class="cls-8" x="65.71" y="326.74" width="305.82" height="65.6"/><path class="cls-1" d="M557.26,214.54c0,14.61,20.48,26.45,45.74,26.45s45.75-11.84,45.75-26.45S628.27,188.09,603,188.09,557.26,199.93,557.26,214.54Z"/><text class="cls-22" transform="translate(574.62 216.91)">a<tspan class="cls-23" x="8.3" y="4.49">1</tspan><tspan x="14.54" y="0">, a</tspan><tspan class="cls-23" x="30.11" y="4.49">2</tspan><tspan x="36.34" y="0">, a</tspan><tspan class="cls-23" x="51.91" y="4.49">3</tspan></text><path class="cls-2" d="M635.77,115.9a21.16,21.16,0,1,0,21.16-21.16A21.16,21.16,0,0,0,635.77,115.9Z"/><text class="cls-24" transform="translate(650.26 118.26)">a<tspan class="cls-23" x="7.58" y="4.49">0</tspan></text><path class="cls-2" d="M426.38,122.48c0,10.66,20.2,19.3,45.13,19.3s45.11-8.64,45.11-19.3-20.2-19.29-45.11-19.29S426.38,111.83,426.38,122.48Z"/><text class="cls-25" transform="translate(442.19 127.1)">c<tspan class="cls-26" x="6.95" y="0">oinbase</tspan></text><circle class="cls-2" cx="616.63" cy="334.78" r="21.16" transform="translate(-60.64 151.45) rotate(-13.35)"/><text class="cls-24" transform="translate(609.96 337.15)">a<tspan class="cls-23" x="7.58" y="4.49">4</tspan></text><line class="cls-8" x1="504.07" y1="144.04" x2="563.7" y2="189.79"/><path class="cls-7" d="M563.54,189.67a3.72,3.72,0,0,1,.76-2.28,6.78,6.78,0,0,0,.82,3.49,7.17,7.17,0,0,0-3.59.11A3.81,3.81,0,0,1,563.54,189.67Z"/><line class="cls-8" x1="642.44" y1="141.78" x2="624.4" y2="179.35"/><path class="cls-7" d="M624.49,179.17a3.66,3.66,0,0,1,2.39.27,6.74,6.74,0,0,0-3.25,1.52,7.12,7.12,0,0,0-.85-3.49A3.8,3.8,0,0,1,624.49,179.17Z"/><line class="cls-8" x1="607.52" y1="248.01" x2="612.72" y2="305.6"/><path class="cls-7" d="M612.71,305.39a3.75,3.75,0,0,1,2.19-1,6.77,6.77,0,0,0-2,3,7.16,7.16,0,0,0-2.51-2.56A3.88,3.88,0,0,1,612.71,305.39Z"/><text class="cls-24" transform="translate(642.44 175.43)">2 <tspan class="cls-27" x="11.4" y="0">B</tspan><tspan class="cls-28" x="17.39" y="0">T</tspan><tspan class="cls-29" x="22.67" y="0">C</tspan><tspan class="cls-26" x="29.18" y="0">, t</tspan><tspan class="cls-30" x="40.98" y="4.49">0</tspan></text><text class="cls-24" transform="translate(475.93 183.9)">50 <tspan class="cls-31" x="19.47" y="0">B</tspan><tspan class="cls-32" x="25.46" y="0">T</tspan><tspan class="cls-30" x="30.74" y="0">C</tspan><tspan class="cls-26" x="37.25" y="0">, t</tspan><tspan class="cls-30" x="49.05" y="4.49">0</tspan></text><text class="cls-24" transform="translate(618.87 283.48)">30 <tspan class="cls-31" x="19.47" y="0">B</tspan><tspan class="cls-32" x="25.46" y="0">T</tspan><tspan class="cls-30" x="30.74" y="0">C</tspan><tspan class="cls-26" x="37.25" y="0">, t</tspan><tspan class="cls-30" x="49.05" y="4.49">2</tspan></text><text class="cls-24" transform="translate(705.41 251.72)">11 <tspan class="cls-31" x="19.47" y="0">B</tspan><tspan class="cls-32" x="25.46" y="0">T</tspan><tspan class="cls-30" x="30.74" y="0">C</tspan><tspan class="cls-26" x="37.25" y="0">, t</tspan><tspan class="cls-30" x="49.05" y="4.49">1</tspan></text><text class="cls-24" transform="translate(503.31 290.41)">30 <tspan class="cls-31" x="19.47" y="0">B</tspan><tspan class="cls-32" x="25.46" y="0">T</tspan><tspan class="cls-30" x="30.74" y="0">C</tspan><tspan class="cls-26" x="37.25" y="0">, t</tspan><tspan class="cls-30" x="49.05" y="4.49">2</tspan></text><path class="cls-8" d="M652.13,231.41s30.73,45.51,48.58,5.51c16-35.91-30.36-26.78-40-24.53"/><path class="cls-7" d="M660.89,212.35a3.7,3.7,0,0,1,1.3,2,6.84,6.84,0,0,0-3.23-1.57,7.19,7.19,0,0,0,2.17-2.85A3.83,3.83,0,0,1,660.89,212.35Z"/><path class="cls-8" d="M558.79,238.61s-22.3,54.3-47.31,22.55c-22.46-28.52,25.43-36.33,35.39-37.62"/><path class="cls-7" d="M546.66,223.58a3.73,3.73,0,0,1-1.06-2.16,6.82,6.82,0,0,0,3,1.91,7.17,7.17,0,0,0-2.47,2.6A3.81,3.81,0,0,1,546.66,223.58Z"/><text class="cls-33" transform="translate(525.34 34.02)">E<tspan class="cls-34" x="11.36" y="0">n</tspan><tspan x="23.7" y="0">ti</tspan><tspan class="cls-35" x="37.34" y="0">t</tspan><tspan class="cls-36" x="45.25" y="0">y ne</tspan><tspan class="cls-35" x="84.37" y="0">t</tspan><tspan class="cls-37" x="92.29" y="0">w</tspan><tspan x="108.11" y="0">o</tspan><tspan class="cls-38" x="120.39" y="0">r</tspan><tspan class="cls-36" x="128.41" y="0">k</tspan></text><text class="cls-33" transform="translate(121.96 34.02)"><tspan class="cls-39">T</tspan><tspan class="cls-40" x="10.51" y="0">r</tspan><tspan x="18.36" y="0">ansa</tspan><tspan class="cls-41" x="62.53" y="0">c</tspan><tspan x="72.46" y="0">tion ne</tspan><tspan class="cls-35" x="138.83" y="0">t</tspan><tspan class="cls-37" x="146.75" y="0">w</tspan><tspan x="162.58" y="0">o</tspan><tspan class="cls-42" x="174.85" y="0">r</tspan><tspan x="182.87" y="0">k</tspan></text><line class="cls-2" x1="26.87" y1="42.88" x2="411.78" y2="44.07"/><line class="cls-2" x1="423.98" y1="44.07" x2="775" y2="45.25"/><rect class="cls-43" x="178.2" y="57.88" width="110.53" height="86.97"/><rect class="cls-43" x="168.98" y="206.45" width="83.5" height="78.45"/><path class="cls-43" d="M265,214.54s27.7-33.07,134.4-20.22c77.42,9.32,112.38,13.21,125.75,14.64"/><polygon class="cls-44" points="532.17 209.69 521.84 212.66 524.63 208.87 522.72 204.58 532.17 209.69"/><path class="cls-43" d="M280.67,156.73s19.55,25.36,101.94,35.38"/></g></svg>