<svg xmlns="http://www.w3.org/2000/svg" viewBox="0 0 513.6 414"><defs><style>.cls-1{fill:#fff;}.cls-1,.cls-15,.cls-16,.cls-17,.cls-2,.cls-7{stroke:#231f20;stroke-miterlimit:10;}.cls-15,.cls-16,.cls-17,.cls-2,.cls-7{fill:none;}.cls-3{font-size:15.48px;}.cls-10,.cls-11,.cls-12,.cls-13,.cls-3,.cls-4,.cls-6,.cls-8,.cls-9{fill:#231f20;}.cls-10,.cls-11,.cls-12,.cls-13,.cls-3,.cls-4,.cls-8,.cls-9{font-family:MyriadPro-Regular, Myriad Pro;}.cls-4{font-size:13.27px;}.cls-5{letter-spacing:-0.01em;}.cls-15,.cls-16,.cls-17,.cls-7{stroke-width:0.5px;}.cls-14,.cls-8{font-size:11.06px;}.cls-9{font-size:15.48px;}.cls-10{font-size:11.06px;}.cls-11{font-size:28.76px;}.cls-12{font-size:8.85px;}.cls-13{font-size:28.76px;}.cls-15{stroke-dasharray:0.99 1.97;}.cls-16{stroke-dasharray:1 1.99;}.cls-17{stroke-dasharray:1 2;}</style></defs><title>Artboard 1</title><g id="LEGEND"><polygon class="cls-1" points="123.22 50.69 175.19 74.3 123.22 97.91 123.22 50.69"/><line class="cls-2" x1="177.82" y1="66.9" x2="177.82" y2="81.7"/><text class="cls-3" transform="translate(130.62 77.77)">T</text><text class="cls-3" transform="translate(138.32 82.93) scale(0.58)">00</text><polygon class="cls-1" points="123.22 158.5 175.19 182.12 123.22 205.73 123.22 158.5"/><line class="cls-2" x1="177.82" y1="174.72" x2="177.82" y2="189.51"/><text class="cls-3" transform="translate(130.62 185.59)">T</text><text class="cls-3" transform="translate(138.32 190.74) scale(0.58)">01</text><text class="cls-4" transform="translate(61.16 63.24)"><tspan class="cls-5">c</tspan><tspan x="5.87" y="0">oinbase</tspan></text><line class="cls-2" x1="24.66" y1="289.96" x2="472.62" y2="289.96"/><polygon class="cls-6" points="469.31 294.05 468.63 293.32 472.24 289.97 468.63 286.61 469.31 285.88 473.71 289.97 469.31 294.05"/><text class="cls-3" transform="translate(31.85 307.66)">time</text><line class="cls-7" x1="182.25" y1="184.33" x2="276.84" y2="222.34"/><path class="cls-6" d="M276.66,222.27a3.7,3.7,0,0,1,.11-2.41,6.88,6.88,0,0,0,1.72,3.15,7.23,7.23,0,0,0-3.42,1.07A3.85,3.85,0,0,1,276.66,222.27Z"/><text class="cls-3" transform="matrix(0.93, 0.37, -0.37, 0.93, 191.82, 209.83)">(</text><text class="cls-3" transform="translate(195.92 211.48) rotate(21.89)"> </text><text class="cls-3" transform="matrix(0.93, 0.37, -0.37, 0.93, 198.96, 212.7)">a</text><text class="cls-3" transform="translate(203.97 220.27) rotate(21.89) scale(0.58)">1</text><text class="cls-3" transform="translate(210.19 217.21) rotate(21.89)"> </text><text class="cls-3" transform="translate(213.24 218.44) rotate(21.89)">,</text><text class="cls-3" transform="translate(216.22 219.63) rotate(21.89)"> </text><text class="cls-3" transform="translate(219.26 220.85) rotate(21.89)">1</text><text class="cls-3" transform="translate(226.63 223.82) rotate(21.89)"> </text><text class="cls-8" transform="translate(229.67 225.04) rotate(21.89)">B</text><text class="cls-8" transform="translate(235.23 227.27) rotate(21.89)">T</text><text class="cls-8" transform="translate(240.33 229.32) rotate(21.89)">C</text><text class="cls-8" transform="matrix(0.93, 0.37, -0.37, 0.93, 246.29, 231.72)"> </text><text class="cls-3" transform="translate(248.45 232.59) rotate(21.89)">)</text><polygon class="cls-1" points="330.83 43.29 382.81 66.91 330.83 90.51 330.83 43.29"/><line class="cls-2" x1="385.44" y1="59.51" x2="385.44" y2="74.3"/><text class="cls-3" transform="translate(338.24 70.38)">T</text><text class="cls-3" transform="translate(345.93 75.53) scale(0.58)">20</text><polygon class="cls-1" points="284.92 199.4 336.89 223.01 284.92 246.62 284.92 199.4"/><line class="cls-2" x1="339.52" y1="215.61" x2="339.52" y2="230.4"/><text class="cls-3" transform="translate(292.32 226.48)">T</text><text class="cls-3" transform="translate(300.02 231.63) scale(0.58)">10</text><line class="cls-7" x1="390.09" y1="61.79" x2="481.26" y2="36.47"/><rect class="cls-6" x="481.01" y="34.85" width="0.5" height="3.25" transform="translate(7.79 130.11) rotate(-15.52)"/><text class="cls-3" transform="translate(390.73 52.53) rotate(-15.52)">(</text><text class="cls-3" transform="translate(394.96 51.36) rotate(-15.52)"> <tspan x="3.28" y="0">a</tspan></text><text class="cls-3" transform="translate(406.69 53.45) rotate(-15.52) scale(0.58)">2</text><text class="cls-3" transform="translate(409.8 47.23) rotate(-15.52)"> </text><text class="cls-3" transform="translate(412.94 46.36) rotate(-15.52)">,</text><text class="cls-3" transform="translate(416.04 45.5) rotate(-15.52)"> </text><text class="cls-3" transform="translate(419.21 44.62) rotate(-15.52)">3</text><text class="cls-3" transform="translate(426.86 42.5) rotate(-15.52)">0</text><text class="cls-3" transform="matrix(0.96, -0.27, 0.27, 0.96, 434.51, 40.37)"> </text><text class="cls-8" transform="translate(437.68 39.49) rotate(-15.52)">B</text><text class="cls-8" transform="translate(443.46 37.89) rotate(-15.52)">T</text><text class="cls-8" transform="translate(448.76 36.41) rotate(-15.52)">C</text><text class="cls-8" transform="translate(454.94 34.7) rotate(-15.52)"> </text><text class="cls-3" transform="translate(457.21 34.07) rotate(-15.52)">)</text><line class="cls-7" x1="224.99" y1="34.3" x2="324.33" y2="58.8"/><rect class="cls-6" x="223.37" y="34.05" width="3.25" height="0.5" transform="translate(137.81 244.53) rotate(-76.14)"/><path class="cls-6" d="M324.13,58.75a3.63,3.63,0,0,1-.22-2.39,6.82,6.82,0,0,0,2.14,2.87,7,7,0,0,0-3.23,1.54A3.84,3.84,0,0,1,324.13,58.75Z"/><text class="cls-9" transform="translate(241.31 28.4) rotate(13.86)">(</text><text class="cls-9" transform="matrix(0.97, 0.24, -0.24, 0.97, 245.58, 29.45)"> </text><text class="cls-9" transform="matrix(0.97, 0.24, -0.24, 0.97, 248.77, 30.24)">a</text><text class="cls-9" transform="translate(254.77 37.03) rotate(13.86) scale(0.58)">2</text><text class="cls-9" transform="matrix(0.97, 0.24, -0.24, 0.97, 260.51, 33.13)"> </text><text class="cls-9" transform="matrix(0.97, 0.24, -0.24, 0.97, 263.69, 33.92)">,</text><text class="cls-9" transform="translate(266.82 34.69) rotate(13.86)"> </text><text class="cls-9" transform="translate(270 35.47) rotate(13.86)">1</text><text class="cls-9" transform="translate(277.71 37.38) rotate(13.86)">0</text><text class="cls-9" transform="matrix(0.97, 0.24, -0.24, 0.97, 285.41, 39.27)"> </text><text class="cls-10" transform="translate(288.61 40.06) rotate(13.86)">B</text><text class="cls-10" transform="translate(294.43 41.5) rotate(13.86)">T</text><text class="cls-10" transform="translate(299.77 42.81) rotate(13.86)">C</text><text class="cls-10" transform="translate(306.01 44.35) rotate(13.86)"> </text><text class="cls-9" transform="translate(308.29 44.92) rotate(13.86)">)</text><text class="cls-11" transform="translate(206.4 30.8) rotate(13.86) scale(0.85)">.</text><text class="cls-11" transform="translate(211.31 32.02) rotate(13.86) scale(0.85)">.</text><text class="cls-11" transform="translate(216.2 33.22) rotate(13.86) scale(0.85)">.</text><line class="cls-7" x1="390.09" y1="72.1" x2="463.18" y2="117.62"/><rect class="cls-6" x="461.56" y="117.37" width="3.25" height="0.5" transform="translate(118.46 448.58) rotate(-58.08)"/><text class="cls-3" transform="matrix(0.85, 0.53, -0.53, 0.85, 387.62, 93.25)">(</text><text class="cls-3" transform="matrix(0.85, 0.53, -0.53, 0.85, 391.36, 95.57)"> </text><text class="cls-3" transform="translate(394.16 97.32) rotate(31.92)">a</text><text class="cls-3" transform="translate(397.77 105.64) rotate(31.92) scale(0.58)">4</text><text class="cls-3" transform="translate(404.42 103.71) rotate(31.92)"> </text><text class="cls-3" transform="translate(407.21 105.44) rotate(31.92)">,</text><text class="cls-3" transform="matrix(0.85, 0.53, -0.53, 0.85, 409.92, 107.14)"> </text><text class="cls-3" transform="translate(412.72 108.88) rotate(31.92)">3</text><text class="cls-3" transform="translate(419.46 113.08) rotate(31.92)">0</text><text class="cls-3" transform="matrix(0.85, 0.53, -0.53, 0.85, 426.2, 117.27)"> </text><text class="cls-12" transform="matrix(0.85, 0.53, -0.53, 0.85, 429, 119.02)">B</text><text class="cls-12" transform="translate(433.07 121.55) rotate(31.92)">T</text><text class="cls-12" transform="translate(436.8 123.88) rotate(31.92)">C</text><text class="cls-3" transform="translate(441.16 126.59) rotate(31.92)"> </text><text class="cls-3" transform="translate(443.95 128.33) rotate(31.92)">)</text><text class="cls-13" transform="translate(464.58 119.89) rotate(31.92) scale(0.85)">.</text><text class="cls-13" transform="translate(468.86 122.56) rotate(31.92) scale(0.85)">.</text><text class="cls-13" transform="translate(473.17 125.24) rotate(31.92) scale(0.85)">.</text><line class="cls-7" x1="343.33" y1="223.01" x2="462.4" y2="223.01"/><rect class="cls-6" x="462.15" y="221.38" width="0.5" height="3.25"/><text class="cls-3" transform="translate(374.84 240.75)">(<tspan x="4.4" y="0"> </tspan><tspan x="7.67" y="0">a</tspan></text><text class="cls-3" transform="translate(389.98 245.9) scale(0.58)">3</text><text class="cls-3" transform="translate(394.63 240.75)"> <tspan x="3.27" y="0">,</tspan><tspan x="6.46" y="0"> </tspan><tspan x="9.77" y="0">1</tspan><tspan x="17.71" y="0"> </tspan><tspan class="cls-14" x="20.98" y="0">B</tspan><tspan class="cls-14" x="27" y="0">T</tspan><tspan class="cls-14" x="32.48" y="0">C</tspan><tspan class="cls-14" x="38.9" y="0"> </tspan><tspan x="41.24" y="0">)</tspan></text><text class="cls-13" transform="translate(464.11 224.21) scale(0.85)">.<tspan x="5.93" y="0">.</tspan><tspan x="11.91" y="0">.</tspan></text><line class="cls-7" x1="142.44" y1="204.25" x2="142.45" y2="204.75"/><line class="cls-15" x1="142.49" y1="206.72" x2="144.07" y2="288.48"/><line class="cls-7" x1="144.09" y1="289.46" x2="144.1" y2="289.96"/><line class="cls-7" x1="142.67" y1="97.91" x2="142.68" y2="98.41"/><line class="cls-16" x1="142.71" y1="100.4" x2="143.85" y2="159.12"/><line class="cls-7" x1="143.87" y1="160.11" x2="143.88" y2="160.61"/><line class="cls-17" x1="310.9" y1="246.62" x2="310.9" y2="289.96"/><line class="cls-17" x1="350.19" y1="87.89" x2="350.19" y2="215.61"/><line class="cls-17" x1="350.19" y1="230.4" x2="350.19" y2="289.12"/><text class="cls-4" transform="translate(148.31 281.12)">t</text><text class="cls-4" transform="translate(152.7 285.54) scale(0.58)">0</text><text class="cls-4" transform="translate(315.32 281.12)">t</text><text class="cls-4" transform="translate(319.72 285.54) scale(0.58)">1</text><text class="cls-4" transform="translate(355.7 281.12)">t</text><text class="cls-4" transform="translate(360.09 285.54) scale(0.58)">2</text><line class="cls-7" x1="182.25" y1="74.3" x2="324.27" y2="74.3"/><path class="cls-6" d="M324.07,74.3a3.68,3.68,0,0,1-.79-2.27,6.88,6.88,0,0,0,2.77,2.27,7.24,7.24,0,0,0-2.77,2.27A3.83,3.83,0,0,1,324.07,74.3Z"/><text class="cls-3" transform="translate(217.12 92.73)">(<tspan x="4.39" y="0"> </tspan><tspan x="7.67" y="0">a</tspan></text><text class="cls-3" transform="translate(232.26 97.88) scale(0.58)">1</text><text class="cls-3" transform="translate(236.91 92.73)"> <tspan x="3.28" y="0">,</tspan><tspan x="6.49" y="0"> </tspan><tspan x="9.77" y="0">5</tspan><tspan x="17.73" y="0">0</tspan><tspan x="25.65" y="0"> </tspan><tspan class="cls-14" x="28.94" y="0">B</tspan><tspan class="cls-14" x="34.94" y="0">T</tspan><tspan class="cls-14" x="40.45" y="0">C</tspan><tspan class="cls-14" x="46.84" y="0"> </tspan><tspan x="49.21" y="0">)</tspan></text><line class="cls-7" x1="34.87" y1="182.11" x2="116.34" y2="182.11"/><rect class="cls-6" x="34.62" y="180.49" width="0.5" height="3.25"/><path class="cls-6" d="M116.14,182.11a3.68,3.68,0,0,1-.79-2.27,6.81,6.81,0,0,0,2.77,2.27,7.36,7.36,0,0,0-2.77,2.28A3.86,3.86,0,0,1,116.14,182.11Z"/><text class="cls-3" transform="translate(40.7 202.59)">(<tspan x="4.41" y="0"> </tspan><tspan x="7.69" y="0">a</tspan></text><text class="cls-3" transform="translate(55.84 207.75) scale(0.58)">0</text><text class="cls-3" transform="translate(60.49 202.59)"> <tspan x="3.26" y="0">,</tspan><tspan x="6.46" y="0"> </tspan><tspan x="9.77" y="0">2</tspan><tspan x="17.7" y="0"> </tspan><tspan class="cls-14" x="21" y="0">B</tspan><tspan class="cls-14" x="26.99" y="0">T</tspan><tspan class="cls-14" x="32.48" y="0">C</tspan><tspan class="cls-14" x="38.91" y="0"> </tspan><tspan x="41.23" y="0">)</tspan></text><text class="cls-13" transform="translate(17.62 183.68) scale(0.85)">.<tspan x="5.93" y="0">.</tspan><tspan x="11.91" y="0">.</tspan></text><line class="cls-7" x1="182.48" y1="178.42" x2="273.64" y2="153.1"/><rect class="cls-6" x="273.39" y="151.48" width="0.5" height="3.25" transform="translate(-30.99 78.81) rotate(-15.52)"/><text class="cls-3" transform="translate(183.11 169.16) rotate(-15.52)">(</text><text class="cls-3" transform="translate(187.34 167.99) rotate(-15.52)"> <tspan x="3.28" y="0">a</tspan></text><text class="cls-3" transform="translate(199.07 170.08) rotate(-15.52) scale(0.58)">2</text><text class="cls-3" transform="translate(202.19 163.86) rotate(-15.52)"> </text><text class="cls-3" transform="translate(205.33 162.99) rotate(-15.52)">,</text><text class="cls-3" transform="translate(208.43 162.13) rotate(-15.52)"> </text><text class="cls-3" transform="translate(211.59 161.25) rotate(-15.52)">1</text><text class="cls-3" transform="translate(219.24 159.13) rotate(-15.52)"> </text><text class="cls-8" transform="translate(222.42 158.24) rotate(-15.52)">B</text><text class="cls-8" transform="matrix(0.96, -0.27, 0.27, 0.96, 228.18, 156.64)">T</text><text class="cls-8" transform="matrix(0.96, -0.27, 0.27, 0.96, 233.48, 155.17)">C</text><text class="cls-8" transform="translate(239.67 153.45) rotate(-15.52)"> </text><text class="cls-3" transform="translate(241.91 152.83) rotate(-15.52)">)</text><text class="cls-8" transform="translate(194.92 351.74)">o<tspan x="6.08" y="0">u</tspan><tspan x="12.18" y="0">t</tspan><tspan x="15.82" y="0">p</tspan><tspan x="22.13" y="0">u</tspan><tspan x="28.22" y="0">t</tspan><tspan x="31.87" y="0"> </tspan><tspan x="34.22" y="0">r</tspan><tspan x="37.72" y="0">e</tspan><tspan x="43.29" y="0">f</tspan><tspan x="46.38" y="0">e</tspan><tspan x="51.9" y="0">r</tspan><tspan x="55.42" y="0">e</tspan><tspan x="60.97" y="0">n</tspan><tspan x="67.1" y="0">c</tspan><tspan x="71.99" y="0">e</tspan><tspan x="77.53" y="0">d</tspan><tspan x="83.78" y="0"> </tspan><tspan x="86.13" y="0">b</tspan><tspan x="92.33" y="0">y</tspan><tspan x="97.56" y="0"> </tspan><tspan x="99.9" y="0">a</tspan><tspan x="105.24" y="0">n</tspan><tspan x="111.38" y="0"> </tspan><tspan x="113.72" y="0">u</tspan><tspan x="119.82" y="0">n</tspan><tspan x="125.81" y="0">v</tspan><tspan x="131.13" y="0">i</tspan><tspan x="133.71" y="0">s</tspan><tspan x="138.12" y="0">u</tspan><tspan x="144.19" y="0">a</tspan><tspan x="149.52" y="0">l</tspan><tspan x="152.14" y="0">i</tspan><tspan x="154.74" y="0">z</tspan><tspan x="159.38" y="0">e</tspan><tspan x="164.93" y="0">d</tspan><tspan x="171.18" y="0"> </tspan><tspan x="173.53" y="0">t</tspan><tspan x="177.2" y="0">r</tspan><tspan x="180.76" y="0">a</tspan><tspan x="186.09" y="0">n</tspan><tspan x="192.23" y="0">s</tspan><tspan x="196.6" y="0">a</tspan><tspan x="201.93" y="0">c</tspan><tspan x="207.05" y="0">t</tspan><tspan x="210.72" y="0">i</tspan><tspan x="213.3" y="0">o</tspan><tspan x="219.37" y="0">n</tspan></text><line class="cls-7" x1="145.87" y1="348.16" x2="82.41" y2="348.16"/><rect class="cls-6" x="145.62" y="346.54" width="0.5" height="3.25"/><text class="cls-13" transform="translate(164.95 346.47) rotate(180) scale(0.85)">.<tspan x="5.93" y="0">.</tspan><tspan x="11.91" y="0">.</tspan></text><line class="cls-7" x1="101.47" y1="328.1" x2="164.93" y2="328.1"/><rect class="cls-6" x="101.22" y="326.47" width="0.5" height="3.25"/><text class="cls-8" transform="translate(194.91 331.41)">r<tspan x="3.51" y="0">e</tspan><tspan x="9.05" y="0">f</tspan><tspan x="12.15" y="0">e</tspan><tspan x="17.67" y="0">r</tspan><tspan x="21.2" y="0">e</tspan><tspan x="26.74" y="0">n</tspan><tspan x="32.89" y="0">c</tspan><tspan x="37.77" y="0">e</tspan><tspan x="43.31" y="0">d</tspan><tspan x="49.56" y="0"> </tspan><tspan x="51.89" y="0">o</tspan><tspan x="57.96" y="0">u</tspan><tspan x="64.07" y="0">t</tspan><tspan x="67.73" y="0">p</tspan><tspan x="74.03" y="0">u</tspan><tspan x="80.12" y="0">t</tspan><tspan x="83.79" y="0"> </tspan><tspan x="86.12" y="0">f</tspan><tspan x="89.37" y="0">r</tspan><tspan x="92.87" y="0">o</tspan><tspan x="98.94" y="0">m</tspan><tspan x="108.18" y="0"> </tspan><tspan x="110.52" y="0">a</tspan><tspan x="115.85" y="0">n</tspan><tspan x="122" y="0"> </tspan><tspan x="124.34" y="0">u</tspan><tspan x="130.42" y="0">n</tspan><tspan x="136.42" y="0">v</tspan><tspan x="141.75" y="0">i</tspan><tspan x="144.33" y="0">s</tspan><tspan x="148.72" y="0">u</tspan><tspan x="154.81" y="0">a</tspan><tspan x="160.14" y="0">l</tspan><tspan x="162.78" y="0">i</tspan><tspan x="165.36" y="0">z</tspan><tspan x="170.01" y="0">e</tspan><tspan x="175.57" y="0">d</tspan><tspan x="181.79" y="0"> </tspan><tspan x="184.13" y="0">t</tspan><tspan x="187.81" y="0">r</tspan><tspan x="191.38" y="0">a</tspan><tspan x="196.72" y="0">n</tspan><tspan x="202.84" y="0">s</tspan><tspan x="207.22" y="0">a</tspan><tspan x="212.57" y="0">c</tspan><tspan x="217.66" y="0">t</tspan><tspan x="221.33" y="0">i</tspan><tspan x="223.91" y="0">o</tspan><tspan x="229.99" y="0">n</tspan></text><text class="cls-13" transform="translate(82.39 329.79) scale(0.85)">.<tspan x="5.93" y="0">.</tspan><tspan x="11.91" y="0">.</tspan></text><line class="cls-7" x1="82.47" y1="368.86" x2="165.73" y2="368.86"/><rect class="cls-6" x="165.48" y="367.24" width="0.5" height="3.25"/><text class="cls-8" transform="translate(194.92 371.95)">o<tspan x="6.08" y="0">u</tspan><tspan x="12.18" y="0">t</tspan><tspan x="15.82" y="0">p</tspan><tspan x="22.13" y="0">u</tspan><tspan x="28.22" y="0">t</tspan><tspan x="31.87" y="0"> </tspan><tspan x="34.22" y="0">n</tspan><tspan x="40.38" y="0">o</tspan><tspan x="46.45" y="0">t</tspan><tspan x="50.1" y="0"> </tspan><tspan x="52.45" y="0">r</tspan><tspan x="55.96" y="0">e</tspan><tspan x="61.49" y="0">f</tspan><tspan x="64.59" y="0">e</tspan><tspan x="70.13" y="0">r</tspan><tspan x="73.65" y="0">e</tspan><tspan x="79.18" y="0">n</tspan><tspan x="85.32" y="0">c</tspan><tspan x="90.22" y="0">e</tspan><tspan x="95.75" y="0">d</tspan><tspan x="102" y="0"> </tspan><tspan x="104.35" y="0">b</tspan><tspan x="110.57" y="0">y</tspan><tspan x="115.77" y="0"> </tspan><tspan x="118.12" y="0">a</tspan><tspan x="123.45" y="0">n</tspan><tspan x="129.61" y="0">o</tspan><tspan x="135.67" y="0">t</tspan><tspan x="139.32" y="0">h</tspan><tspan x="145.47" y="0">e</tspan><tspan x="151.01" y="0">r</tspan><tspan x="154.63" y="0"> </tspan><tspan x="156.99" y="0">t</tspan><tspan x="160.63" y="0">r</tspan><tspan x="164.2" y="0">a</tspan><tspan x="169.54" y="0">n</tspan><tspan x="175.69" y="0">s</tspan><tspan x="180.06" y="0">a</tspan><tspan x="185.4" y="0">c</tspan><tspan x="190.5" y="0">t</tspan><tspan x="194.17" y="0">i</tspan><tspan x="196.74" y="0">o</tspan><tspan x="202.81" y="0">n</tspan></text><line class="cls-7" x1="82.47" y1="389.19" x2="164.2" y2="389.19"/><path class="cls-6" d="M164,389.19a3.68,3.68,0,0,1-.79-2.27,6.75,6.75,0,0,0,2.77,2.27,7.1,7.1,0,0,0-2.77,2.27A3.76,3.76,0,0,1,164,389.19Z"/><text class="cls-8" transform="translate(194.92 392.28)">o<tspan x="6.08" y="0">u</tspan><tspan x="12.18" y="0">t</tspan><tspan x="15.82" y="0">p</tspan><tspan x="22.13" y="0">u</tspan><tspan x="28.22" y="0">t</tspan><tspan x="31.87" y="0"> </tspan><tspan x="34.22" y="0">r</tspan><tspan x="37.72" y="0">e</tspan><tspan x="43.29" y="0">f</tspan><tspan x="46.38" y="0">e</tspan><tspan x="51.9" y="0">r</tspan><tspan x="55.42" y="0">e</tspan><tspan x="60.97" y="0">n</tspan><tspan x="67.1" y="0">c</tspan><tspan x="71.99" y="0">e</tspan><tspan x="77.53" y="0">d</tspan><tspan x="83.78" y="0"> </tspan><tspan x="86.13" y="0">b</tspan><tspan x="92.33" y="0">y</tspan><tspan x="97.56" y="0"> </tspan><tspan x="99.9" y="0">a</tspan><tspan x="105.24" y="0">n</tspan><tspan x="111.37" y="0">o</tspan><tspan x="117.45" y="0">t</tspan><tspan x="121.13" y="0">h</tspan><tspan x="127.25" y="0">e</tspan><tspan x="132.81" y="0">r</tspan><tspan x="136.4" y="0"> </tspan><tspan x="138.75" y="0">t</tspan><tspan x="142.42" y="0">r</tspan><tspan x="146" y="0">a</tspan><tspan x="151.33" y="0">n</tspan><tspan x="157.47" y="0">s</tspan><tspan x="161.83" y="0">a</tspan><tspan x="167.18" y="0">c</tspan><tspan x="172.27" y="0">t</tspan><tspan x="175.94" y="0">i</tspan><tspan x="178.53" y="0">o</tspan><tspan x="184.6" y="0">n</tspan></text><rect class="cls-7" x="57.84" y="317.05" width="381.58" height="81.85"/></g></svg>